# xmcd
#
# Track frame offsets:
#	150
#	20940
#	59693
#	94127
#	106183
#	126471
#	156119
#	178320
#	191877
#	228908
#	243378
#	260891
#	282004
#	307333
#
# Disc length: 4313
#
# Revision: 1
# Processed by: cddbd v1.5.1PL0 Copyright (c) Steve Scherf et al.
# Submitted via: ExactAudioCopy v0.90a11
# Normalized: r0:DSETVAR1,TDELIM( - )
#
DISCID=da10d70e
DTITLE=Various Artist - Southern Comfort  Rocks The Blues  v.2
DYEAR=1900
DGENRE=
TTITLE0=the subdudes - all the time in the world
TTITLE1=Little Feat - Let It Roll (live)
TTITLE2=Buddy Guy - My Time After Awhile
TTITLE3=Taj Mahal - Lovin' In My Baby's Eyes
TTITLE4=The Iguanas - Is This Love?
TTITLE5=G. Love and Special Sauce - This Ain't Liveng
TTITLE6=The Radiators - Wait Till The Medicine Show
TTITLE7=Boxing Gandhis - Roll
TTITLE8=P-Funk All Stars - Dog Star (Fly On)
TTITLE9=Sista' Monica - Get Out My Way
TTITLE10=Gindham Shmuz - Send Down The Word
TTITLE11=Cathy Richardson Band - Crimes of Humanity
TTITLE12=Little Feat - Oh Atlanta
TTITLE13=The Iguanas - Benny's Cadillac
EXTD=
EXTT0=
EXTT1=
EXTT2=
EXTT3=
EXTT4=
EXTT5=
EXTT6=
EXTT7=
EXTT8=
EXTT9=
EXTT10=
EXTT11=
EXTT12=
EXTT13=
PLAYORDER=
